<?xml version="1.0" encoding="utf-8"?>
<!-- Generator: Adobe Illustrator 19.0.1, SVG Export Plug-In . SVG Version: 6.00 Build 0)  -->
<!DOCTYPE svg PUBLIC "-//W3C//DTD SVG 1.1//EN" "http://www.w3.org/Graphics/SVG/1.1/DTD/svg11.dtd">
<svg version="1.1" id="Layer_1" xmlns="http://www.w3.org/2000/svg" xmlns:xlink="http://www.w3.org/1999/xlink" x="0px" y="0px"
	 viewBox="0 0 68.6 54" style="enable-background:new 0 0 68.6 54;" xml:space="preserve">
<g id="icon-mask">
	<path d="M37,43.9l-9.5,9.5c-0.8,0.8-2.1,0.8-2.8,0L0.6,29.3c-0.8-0.8-0.8-2.1,0-2.8L10,17c0.8-0.8,2.1-0.8,2.8,0L37,41.1
		C37.8,41.9,37.8,43.2,37,43.9z"/>
	<path d="M24.7,53.4l-9.5-9.5c-0.8-0.8-0.8-2.1,0-2.8L55.8,0.6c0.8-0.8,2.1-0.8,2.8,0L68,10c0.8,0.8,0.8,2.1,0,2.8L27.5,53.4
		C26.7,54.2,25.5,54.2,24.7,53.4z"/>
</g>
</svg>
