<?xml version="1.0" encoding="utf-8"?>
<!-- Generator: Adobe Illustrator 19.0.1, SVG Export Plug-In . SVG Version: 6.00 Build 0)  -->
<!DOCTYPE svg PUBLIC "-//W3C//DTD SVG 1.1//EN" "http://www.w3.org/Graphics/SVG/1.1/DTD/svg11.dtd">
<svg version="1.1" id="Layer_1" xmlns:sketch="http://www.bohemiancoding.com/sketch/ns"
	 xmlns="http://www.w3.org/2000/svg" xmlns:xlink="http://www.w3.org/1999/xlink" x="0px" y="0px" viewBox="-264 356 83 82"
	 style="enable-background:new -264 356 83 82;" xml:space="preserve">
<style type="text/css">
	.st0{fill:url(#Oval-1_1_);}
	.st1{display:none;fill:#FBE9FF;}
	.st2{fill-rule:evenodd;clip-rule:evenodd;fill:#CAEFB1;}
	.st3{fill:#EFF2ED;}
	.st4{font-family:'EaglefeatherFormalBold';}
	.st5{font-size:23.0168px;}
	.st6{fill:#E1EADA;}
	.st7{font-size:11.5476px;}
</style>
<title>icon</title>
<desc>Created with Sketch.</desc>
<g id="Page-1" sketch:type="MSPage">
	<g id="icon" transform="translate(484.912024, 482.000000)" sketch:type="MSShapeGroup">
		<linearGradient id="Oval-1_1_" gradientUnits="userSpaceOnUse" x1="-707.0469" y1="-125.8163" x2="-706.9528" y2="-43.8163">
			<stop  offset="0" style="stop-color:#449211"/>
			<stop  offset="0.2536" style="stop-color:#449211"/>
			<stop  offset="0.703" style="stop-color:#448E1D"/>
			<stop  offset="1" style="stop-color:#44641D"/>
		</linearGradient>
		<circle id="Oval-1" class="st0" cx="-707" cy="-85" r="41"/>
		<path id="icon-mask" class="st1" d="M-715.9-80.8h18.8l2.6-10h-24L-715.9-80.8z M-715.6-72.8c-0.5,0-0.9,0.4-0.9,0.9
			c0,0.5,0.4,0.9,0.9,0.9c0.5,0,0.9-0.4,0.9-0.9C-714.6-72.4-715-72.8-715.6-72.8L-715.6-72.8z M-698.6-72.8c-0.5,0-0.9,0.4-0.9,0.9
			c0,0.5,0.4,0.9,0.9,0.9c0.5,0,0.9-0.4,0.9-0.9C-697.7-72.4-698.1-72.8-698.6-72.8L-698.6-72.8z M-698.6-68.2c-2,0-3.7-1.7-3.7-3.7
			c0-0.3,0-0.6,0.1-0.9h-9.8c0.1,0.3,0.1,0.6,0.1,0.9c0,2-1.7,3.7-3.7,3.7s-3.7-1.7-3.7-3.7c0-1.4,0.8-2.7,2-3.3l-1-3.7
			c-0.1-0.1-0.1-0.3-0.1-0.4l-4.5-17h-3.8c-0.8,0-1.4-0.6-1.4-1.4c0-0.8,0.6-1.4,1.4-1.4h4.8c0.6,0,1.2,0.4,1.3,1l1.2,4.4h26.5
			c0.4,0,0.8,0.2,1.1,0.5c0.3,0.3,0.4,0.8,0.2,1.2l-3.3,12.8c-0.2,0.6-0.7,1-1.3,1h-19.1l0.7,2.5h15.8h0c2,0,3.7,1.7,3.7,3.7
			C-695-69.9-696.6-68.2-698.6-68.2L-698.6-68.2z"/>
		<path class="st2" d="M-709.1-44.1c0,0,0.5-7.9-8.3-8.2l-0.5-0.3c0,0,0.2-2.8,3.2-2.8c0,0,4.3,0.2,5.7,4.9c0,0,1.2-2.7-0.9-7.1
			c0,0-4.7-7.1-1.5-15.4c0,0,2.7-6.3,2.5-8l0.3-0.5c0,0,4.5,1.3,5.9,6.6c0,0,1.9,8.3-2.3,14.2c0,0-2.4,3.5-2.8,11.4
			c0,0,1.3-5.2,6.3-9.5c0,0,8.1-6.6,15.4-6.8l0.6,0.3c0,0-0.9,8.2-10.2,10.2c0,0-9.1,0.9-11.1,7.4c0,0-0.4,0.8-0.2,3.1
			C-706.9-43.6-709.1-44.1-709.1-44.1z"/>
		<text transform="matrix(1 0 0 1 -733.9125 -85.0704)" class="st3 st4 st5">Forms</text>
		<g>
			<text transform="matrix(1 0 0 1 -712.0341 -99.3008)" class="st6 st4 st7">Sprout</text>
		</g>
	</g>
</g>
</svg>
