<?xml version="1.0" encoding="iso-8859-1"?>
<!-- Generator: Adobe Illustrator 19.1.0, SVG Export Plug-In . SVG Version: 6.00 Build 0)  -->
<svg version="1.1" id="Capa_1" xmlns="http://www.w3.org/2000/svg" xmlns:xlink="http://www.w3.org/1999/xlink" x="0px" y="0px"
	 viewBox="0 0 511.653 511.653" style="enable-background:new 0 0 511.653 511.653;" xml:space="preserve">
<g>
	<g>
		<path d="M483.993,0L27.66,0.028l-6.914,6.914v497.797l6.914,6.914h371.925l4.895-2.027l84.401-84.442l2.026-4.888V6.914L483.993,0
			z M406.804,487.744l1.03-59.192l59.178-1.037L406.804,487.744z M477.079,413.507l-76.166,1.341l-6.797,6.79l-1.321,76.187H34.574
			V124.454h442.505V413.507z M477.079,110.626H34.574v-96.77l442.505-0.028V110.626z"/>
		<path d="M159.043,89.331c12.86,0,23.708-8.822,26.778-20.742h140.032c3.069,11.92,13.918,20.742,26.778,20.742
			c15.26,0,27.664-12.404,27.664-27.657s-12.404-27.657-27.657-27.657c-12.86,0-23.708,8.822-26.778,20.742H185.821
			c-3.069-11.92-13.918-20.742-26.778-20.742c-15.253,0-27.657,12.404-27.657,27.657S143.79,89.331,159.043,89.331z M352.631,47.846
			c7.626,0,13.828,6.202,13.828,13.828s-6.202,13.828-13.828,13.828s-13.828-6.202-13.828-13.828
			C338.803,54.048,345.005,47.846,352.631,47.846z M159.035,47.846c7.627,0,13.828,6.202,13.828,13.828s-6.202,13.828-13.828,13.828
			c-7.626,0-13.828-6.202-13.828-13.828C145.207,54.048,151.409,47.846,159.035,47.846z"/>
		<path d="M317.584,428.967l1.41-1.473c21.607-22.574,40.261-42.079,40.261-116.337c0-56.495-14.409-97.102-42.826-120.7
			c-17.376-14.423-49.042-24.497-77.017-24.497h-87.007v290.394h82.396C262.194,456.354,293.446,454.238,317.584,428.967z
			 M166.233,442.525V179.788h73.179c25.036,0,53.066,8.767,68.18,21.309c25.105,20.846,37.834,57.871,37.834,110.059
			c0,68.706-16.083,85.507-36.431,106.775l-1.41,1.487C289.2,438.653,266.1,442.525,234.8,442.525H166.233z"/>
	</g>
</g>
<g>
</g>
<g>
</g>
<g>
</g>
<g>
</g>
<g>
</g>
<g>
</g>
<g>
</g>
<g>
</g>
<g>
</g>
<g>
</g>
<g>
</g>
<g>
</g>
<g>
</g>
<g>
</g>
<g>
</g>
</svg>
