<?xml version="1.0" encoding="utf-8"?>
<!-- Generator: Adobe Illustrator 19.0.1, SVG Export Plug-In . SVG Version: 6.00 Build 0)  -->
<!DOCTYPE svg PUBLIC "-//W3C//DTD SVG 1.1//EN" "http://www.w3.org/Graphics/SVG/1.1/DTD/svg11.dtd">
<svg version="1.1" xmlns="http://www.w3.org/2000/svg" xmlns:xlink="http://www.w3.org/1999/xlink" x="0px" y="0px"
	 viewBox="0 0 100 100" style="enable-background:new 0 0 100 100;" xml:space="preserve">
<style type="text/css">
	.st0{display:none;}
	.st1{fill:#EAEDE8;}
	.st2{fill:#449C11;}
	.st3{display:inline;fill:url(#gradient_1_);}
	.st4{fill:url(#SVGID_1_);}
</style>
<g id="Layer_1" class="st0">
	<circle id="grey" class="st1" cx="50" cy="50" r="50"/>
	<circle id="green" class="st2" cx="50" cy="50" r="50"/>
	<linearGradient id="gradient_1_" gradientUnits="userSpaceOnUse" x1="39.6023" y1="98.9174" x2="60.3977" y2="1.0826">
		<stop  offset="0" style="stop-color:#91BF11"/>
		<stop  offset="0.286" style="stop-color:#50A111"/>
		<stop  offset="0.2987" style="stop-color:#4DA011"/>
		<stop  offset="0.3498" style="stop-color:#499C11"/>
		<stop  offset="0.6469" style="stop-color:#348511"/>
		<stop  offset="0.7252" style="stop-color:#317A0F"/>
		<stop  offset="0.8618" style="stop-color:#285D08"/>
		<stop  offset="1" style="stop-color:#1D3A00"/>
	</linearGradient>
	<circle id="gradient" class="st3" cx="50" cy="50" r="50"/>
</g>
<g id="Layer_2">
	<circle class="st0" cx="50" cy="51" r="34.5"/>
	<linearGradient id="SVGID_1_" gradientUnits="userSpaceOnUse" x1="39.6023" y1="98.9174" x2="60.3977" y2="1.0826">
		<stop  offset="0" style="stop-color:#91BF11"/>
		<stop  offset="0.286" style="stop-color:#50A111"/>
		<stop  offset="0.2987" style="stop-color:#4DA011"/>
		<stop  offset="0.3498" style="stop-color:#499C11"/>
		<stop  offset="0.6469" style="stop-color:#348511"/>
		<stop  offset="0.7252" style="stop-color:#317A0F"/>
		<stop  offset="0.8618" style="stop-color:#285D08"/>
		<stop  offset="1" style="stop-color:#1D3A00"/>
	</linearGradient>
	<path class="st4" d="M50,0C22.4,0,0,22.4,0,50c0,27.6,22.4,50,50,50s50-22.4,50-50C100,22.4,77.6,0,50,0z M85.2,37.9L54.1,68.9
		l-9.5,9.5c-0.8,0.8-2.1,0.8-2.8,0l-9.5-9.5c0,0,0,0,0,0L17.7,54.3c-0.8-0.8-0.8-2.1,0-2.8l9.5-9.5c0.8-0.8,2.1-0.8,2.8,0l13.2,13.2
		l29.7-29.7c0.8-0.8,2.1-0.8,2.8,0l9.5,9.5C86,35.8,86,37.1,85.2,37.9z"/>
</g>
</svg>
